<svg width="67" height="67" viewBox="0 0 67 67" fill="none" xmlns="http://www.w3.org/2000/svg">
<path d="M26.1991 29.2451C26.6363 28.5038 32.8978 24.9648 33.7725 24.9648C34.6472 24.9648 40.9101 28.5037 41.3474 29.2451C41.7846 29.9864 41.7847 37.0645 41.3474 37.8058C40.9103 38.5472 34.6471 42.0862 33.7725 42.0862L33.7711 42.084V42.0862C32.8964 42.0862 26.6348 38.5473 26.1975 37.8059C25.7601 37.0647 25.7602 29.9866 26.1975 29.2452L26.2 29.2466L26.1991 29.2451Z" fill="url(#paint0_linear_1536_213)"/>
<path fill-rule="evenodd" clip-rule="evenodd" d="M66.6955 33.5255C66.6955 51.7099 51.9541 66.4513 33.7696 66.4513C15.5852 66.4513 0.84375 51.7099 0.84375 33.5255C0.84375 15.341 15.5852 0.599609 33.7696 0.599609C51.9541 0.599609 66.6955 15.341 66.6955 33.5255ZM33.7698 16.404C32.0206 16.404 19.4958 23.482 18.6213 24.9648C17.7467 26.4476 17.7464 40.6034 18.621 42.0862C19.4956 43.569 32.0209 50.6469 33.7698 50.6469C34.6444 50.6469 38.2134 48.8777 41.6725 46.9228C45.1316 44.968 48.4811 42.8275 48.9183 42.0862C49.3556 41.3448 49.574 37.4352 49.574 33.5255C49.574 29.6158 49.356 25.7061 48.9186 24.9648C48.4813 24.2234 45.1318 22.0826 41.6727 20.1279C38.2135 18.173 34.6443 16.404 33.7698 16.404Z" fill="url(#paint1_linear_1536_213)"/>
<defs>
<linearGradient id="paint0_linear_1536_213" x1="33.7696" y1="0.599609" x2="33.7696" y2="66.4513" gradientUnits="userSpaceOnUse">
<stop stop-color="#D56D4D"/>
<stop offset="1" stop-color="#C44C4F"/>
</linearGradient>
<linearGradient id="paint1_linear_1536_213" x1="33.7696" y1="0.599609" x2="33.7696" y2="66.4513" gradientUnits="userSpaceOnUse">
<stop stop-color="#D56D4D"/>
<stop offset="1" stop-color="#C44C4F"/>
</linearGradient>
</defs>
</svg>
