<svg width="36" height="50" viewBox="0 0 36 50" fill="none" xmlns="http://www.w3.org/2000/svg">
<path d="M17.5792 23.7589C20.6791 23.7589 23.652 22.5482 25.844 20.3931C28.036 18.2379 29.2674 15.315 29.2674 12.2672C29.2674 9.21935 28.036 6.29637 25.844 4.14125C23.652 1.98613 20.6791 0.775391 17.5792 0.775391C14.4793 0.775391 11.5063 1.98613 9.31437 4.14125C7.12241 6.29637 5.89098 9.21935 5.89098 12.2672C5.89098 15.315 7.12241 18.2379 9.31437 20.3931C11.5063 22.5482 14.4793 23.7589 17.5792 23.7589ZM6.62149 29.5048C4.87779 29.5048 3.20551 30.1858 1.97254 31.3981C0.739556 32.6104 0.046875 34.2545 0.046875 35.9689V36.6872C0.046875 36.6872 0.046875 49.6154 17.5792 49.6154C35.1115 49.6154 35.1115 36.6872 35.1115 36.6872V35.9689C35.1115 34.2545 34.4188 32.6104 33.1858 31.3981C31.9529 30.1858 30.2806 29.5048 28.5369 29.5048H6.62149Z" fill="white"/>
</svg>
